<svg xmlns="http://www.w3.org/2000/svg" xml:space="preserve" viewBox="0 0 512 512">
  <rect width="512" height="512" rx="96" fill="#c8bfb0" />
  <g transform="translate(72 72) scale(0.72)">
    <path fill="#2e6b36"
      d="M478.609 300.522v-33.39h-33.391v-66.784h33.391V66.783h-33.391v-33.39h-33.391V0H0v100.174h33.39v311.652H0V512h445.217v-33.39h33.391v-33.392H512V300.522zm-133.566 77.913H166.957v-44.522h178.087v44.522zm0-222.609H166.957v-33.391h178.087v33.391z" />
    <path fill="#1d5029"
      d="M478.609 300.522v-33.39h-33.392v-66.784h33.392V66.783h-33.392V33.392h-33.391V0H256v122.435h89.043v33.391H256v178.087h89.043v44.522H256V512h189.217v-33.39h33.392v-33.393H512V300.522z" />
    <path fill="#1a2e1c"
      d="M33.391 100.174h33.391v311.652H33.391zm0 311.652H0V512h445.217v-33.391H33.391zM411.826 33.391V0H0v100.174h33.391V33.391zm0 0h33.391v33.391h-33.391zm33.391 33.392h33.391v133.565h-33.391zm33.392 233.739H512v144.696h-33.391zm-33.392 144.695h33.391v33.391h-33.391zm-66.782-256v-66.782h-33.392v33.391H166.957v-33.391h178.086V89.043H133.565v100.174zm-33.392 189.218H166.957v-44.522h178.086v-33.391H133.565v111.304h244.87v-77.913h-33.392zm66.783-144.696h-33.391v33.391h66.782v-66.782h-33.391zm33.391 33.391h33.391v33.391h-33.391z" />
  </g>
</svg>