<svg xmlns="http://www.w3.org/2000/svg" viewBox="0 0 905 680">
  <path fill="currentColor"
    d="m371.125 61.3125 2.38720703 1.16479492C380.56294417 66.04405725 387.58062482 70.28254973 392 77c1.25523636 4.07855688 1.14209793 8.1197909 1.13422108 12.34937954l.00712797 2.58805373c.0066929 2.88125539.00623169 5.76246571.00582197 8.64372823.00329842 2.07878884.00702394 4.15757704.01114148 6.23636442.01003017 5.7277037.01373841 11.45539692.01638931 17.18310815.00389989 6.17118499.01347826 12.34236166.02221286 18.51354135.01883609 14.20374178.02902038 28.40748164.03746068 42.6112324.00420581 7.01657684.00942782 14.03315282.01468453 21.04972893.01788791 24.01154728.0328856 48.02309481.04032019 72.03464776q.00071214 2.26102694.00142767 4.52205387l.00071629 2.26520428c.00120121 3.78736274.00241666 7.57472547.00364199 11.3620882l.00072772 2.27762235c.00789746 24.38325413.03133964 48.76645968.06382822 73.14969259.03427518 25.77106297.05400698 51.54209751.05730235 77.31318366.00041756 2.82733567.00089712 5.65467132.00142318 8.48200697l.00037331 2.10965068c.00233462 11.21632506.01800877 22.4325938.03846854 33.64889876.02022616 11.26666022.02541627 22.53325358.01622937 33.79993481-.00456175 6.10689519-.00254993 12.21360697.01676144 18.32047731.01751053 5.58540049.01673312 11.17048213.00110271 16.75588543-.00239456 2.02553184.00204209 4.05108507.01382865 6.07658403.01498604 2.74429705.00553913 5.48744473-.01022688 8.23171187l.03097638 2.40700498c-.04687374 3.7145213-.40623829 5.87642574-2.39161435 9.05690137C389 590 389 590 386.35546875 590.65625c-4.98883368-.97569739-8.7502906-3.51133014-13.04296875-6.15625-36.9142716-21.82055-80.1689606-29.76728814-122.3125-34.1875l-3.37011719-.36206055c-21.3411181-2.09021873-42.84891783-2.09106553-64.27094269-2.11910438-4.23799184-.00606583-8.47590649-.02273013-12.71385955-.04134178a689551 689551 0 0 0-4.40026474-.01897717l-2.21954298-.00959337c-9.81961104-.04172866-19.63917207-.07518096-29.4588666-.08735048-6.69511007-.00838055-13.39001331-.03083101-20.08501983-.06935567-3.52216095-.01968348-7.04401345-.03218915-10.56623292-.02716571-3.90454047.00550718-7.80855238-.01973908-11.71300506-.04752159l-3.49447632.02000427C82.50605357 547.47739983 78.69228967 547.20692346 74 543c-4.8487849-6.01918125-4.14786052-14.44712047-4.12584114-21.8292551l-.00440437-2.59807733c-.00364493-2.8685246-.00018054-5.73699555.00326187-8.60551974-.00115242-2.07923852-.00274076-4.15847683-.00472725-6.23771471-.0041769-5.71076628-.00210997-11.42151586.00098622-17.1322822.00226063-6.16039586-.00122889-12.32078883-.00397992-18.48118412-.00419286-11.37141454-.00382489-22.74282227-.00108853-34.11423663.00251647-10.50952848.00317184-21.01905501.00197735-31.52858373l-.00023147-2.11326769c-.00031134-2.83102928-.00062974-5.66205856-.00095976-8.49308784-.0030592-26.56012468-.00028564-53.12024597.0050969-79.68037013.00474196-23.57833674.00432406-47.15666807-.00046099-70.73500476-.00536029-26.50127049-.00747449-53.00253797-.00438774-79.50380892.0003207-2.82801439.00063354-5.65602879.00094306-8.48404318l.00023963-2.11002317c.0011355-10.49605781-.0001892-20.99211344-.00271918-31.48817095-.00286488-11.94490197-.00203683-23.88979756.00328075-35.83469928.00262278-6.09189413.00366625-12.18377732.00035084-18.27567136-.0029925-5.58319929-.00132114-11.16637755.00397756-16.74957495.00111165-2.01347317.00056097-4.02694813-.00187579-6.04042013C69.86274885 36.97551832 69.89020385 30.9885638 70 25l.03969517-2.24770705c.04837694-2.06341055.12655635-4.1230106.21824131-6.18490155l.13715279-3.43573374c.92543495-4.79103 3.14570064-8.046604 7.04241073-10.94415766 45.46882859-21.07092057 196.78757985 21.79509248 293.6875 59.125M141 73c-.08223366 3.08995097-.08223366 3.08995097 1 6 3.27612098 2.25363121 6.54613936 2.40635918 10.44140625 2.7109375l3.91601563.32763672 2.07592773.16497803c22.85979047 1.84076228 45.33751197 5.19621329 67.73168945 10.16851806 2.73144185.60500073 5.46619244 1.19217372 8.20214844 1.77636719 18.29156551 3.96311646 36.41910266 8.77496385 54.19921875 14.625l2.14402771.70387268c3.44083948 1.13359697 6.87467169 2.28431489 10.30104065 3.46092224L304.75 114.19140625l3.296875 1.13110352c3.1097655.71342586 4.93016386.61774804 7.953125-.32250977 1.3741663-1.16593462 1.3741663-1.16593462 1.375-4.375L317 107c-4.07534604-3.18696105-9.01849114-4.48034813-13.890625-6.00390625l-2.667099-.84703064c-2.8944379-.9137315-5.79264505-1.81445413-8.692276-2.71156311l-3.02481079-.93896484C250.31991117 84.6277781 211.48658932 75.86371084 171.5 71.625l-2.45346069-.26043701C153.74823031 68.3019845 153.74823031 68.3019845 141 73m1.08203125 69.359375c-1.34170041 1.67142567-1.34170041 1.67142567-.89453125 4.203125.65877033 2.58191272.65877033 2.58191272 2.8125 4.4375 2.02080094.48026292 2.02080094.48026292 4.38500977.68261719l2.77459716.30561828 3.03179932.30863953c2.14758376.2352176 4.29512438.47082943 6.44262695.70678711l3.4269104.36764526c42.93586966 4.64350576 84.79940945 12.91339069 126.06015015 25.84744263l3.57714844 1.11938477c2.27046186.71535752 4.53822418 1.43935956 6.80273437 2.17333984l3.10449219.98461914 2.72338867.88061523c3.01626981.70382386 5.58468854.88304076 8.67114258.62329102 2.15254366-2.14298293 2.15254366-2.14298293 3-5-.8450972-2.56060487-1.5137993-3.71109162-3.84887695-5.09863281C306.4563286 172.07566363 298.66197268 169.60576322 290.8125 167.25l-2.17684937-.65518188C252.31844206 155.6957122 215.63479154 147.69516674 178 143l-2.79101562-.35498047c-17.17415714-3.20879634-17.17415714-3.20879634-33.12695313-.28564453M142.5625 215.6875c-1.81857885 2.210094-1.81857885 2.210094-1.5 4.9375.80405546 2.69789761.80405546 2.69789761 3.9375 4.375 2.81635349.47417023 2.81635349.47417023 6.0625.67578125l3.79736328.3112793 2.03717041.15853882c44.51073348 3.53256713 88.57352919 12.00329195 131.19281006 25.35830688l2.01966858.6325531c3.1995508 1.00594635 6.39230333 2.0276692 9.58018494 3.07032776L303.125 256.3125l3.0078125.98828125c3.09873666.75568646 5.69009126.96472679 8.8671875.69921875 2.28056299-1.88374462 2.28056299-1.88374462 2.4375-4.9375L317 250c-3.62445204-2.65815557-7.48619347-3.97941733-11.73828125-5.34765625l-2.0018158-.64483643c-2.18792225-.69949984-4.37948931-1.38632417-6.57240295-2.07000732l-2.3092041-.72372437C216.95783236 214.36340789 216.95783236 214.36340789 142.5625 215.6875m-.46875 75.203125c-1.26405155 2.01884921-1.26405155 2.01884921-1.03125 4.171875 1.2590978 2.60213546 2.44539275 3.45043907 4.9375 4.9375 3.34317782.59332799 3.34317782.59332799 7.1484375.73828125 1.47505165.09466527 2.95006636.18990742 4.42504883.28564453l2.36465454.13970947c47.46226884 2.899412 94.53009635 13.42847283 139.72055054 28.01751709l3.45458984 1.11181641 3.01293945.99682617C309.90741144 332.22425112 313.43570997 332.78214502 317 331c.960742-2.32179316 1.13188444-3.56716762.39550781-5.98388672-2.02042045-2.91893494-4.12831559-3.34775089-7.47363281-4.46142578l-1.89576721-.64041138c-2.08664993-.69747441-4.18031678-1.36980573-6.27610779-2.03927612l-2.20321655-.71716309C251.95602498 301.68543127 200.67746924 289.77346065 150.4375 288.6875l-3.50390625-.11328125c-3.02563911.14214426-3.02563911.14214426-4.83984375 2.31640625M231.125 377.1875c-1.35368897 1.81119573-1.35368897 1.81119573-1.0625 4.3125 1.15283181 3.07421815 2.17323709 3.77647665 4.9375 5.5 2.73482274.88629291 2.73482274.88629291 5.76953125 1.46484375l3.44726563.73632813L247.8125 389.9375c15.81540125 3.30564161 31.24249867 7.59406116 46.66601562 12.36157227 1.932885.59625965 3.86765072 1.18606799 5.80273438 1.77514648l3.40820312 1.04956055C307.15367912 406.0406751 310.4249059 406.72139696 314 407c2.99677258-1.66522058 2.99677258-1.66522058 4-3.8125.22011088-2.39829674.22011088-2.39829674-1.81640625-4.5859375-3.94585813-3.74684365-9.01760859-4.89196346-14.12109375-6.4140625l-3.29956055-1.01660156C264.79174622 377.99215271 264.79174622 377.99215271 231.125 377.1875m478.75-377.5 2.7722168-.05371094c6.0393108.0068183 12.21864201.52309365 16.91455078 4.78295899 4.12087266 4.74247723 4.56374788 8.30124659 4.5724535 14.40122699l.00712797 2.12318382c.00669676 2.36543903.00623157 4.73082322.00582197 7.09627095.00329819 1.70598121.00702366 3.41196165.01114148 5.11794108.01003298 4.70189101.01373887 9.40376924.01638931 14.10566944.00389913 5.06555455.01347765 10.13109896.02221286 15.19664705.01977409 12.23914872.02983121 24.47829828.03872779 36.71745899.00438081 5.75973557.00974811 11.51947022.01498887 17.27920506.0170122 19.13928505.0315077 38.27856952.03874874 57.41786098.00190998 4.96813298.0038303 9.93626596.00578595 14.90439892l.00146588 3.74195196c.00830526 20.01615037.03365061 40.03224107.06611479 60.04836537.03303822 20.53697053.05107916 41.07391069.05427762 61.61090794.00216796 11.53615989.01095843 23.07223274.03646118 34.60836678.02166269 9.82190284.02977925 19.6436975.02003322 29.46562151-.0045574 5.01338342-.00257506 10.02654341.01676144 15.03989645.0175417 4.58752074.01670753 9.17465357.00110271 13.76217791-.00238979 1.66151817.00201803 3.32306257.01382865 4.98454048.01504511 2.25582812.00549935 4.51026864-.01022688 6.7660618l.00296002 3.79917938C733.90385723 426.65575866 732.53945163 428.82460407 730 432c-4.21069701 2.58107964-8.81044841 2.2965446-13.61328125 2.30859375-1.72819634.02255808-3.45638631.0456077-5.18457031.0690918l-2.7286377.02767944c-51.12171063.58965913-101.01665404 12.58274953-147.25769043 34.5506897-2.12626163 1.00175129-4.26463369 1.96927563-6.41113281 2.92675781C531.57996556 482.34301168 509.43562728 495.81515214 489 511l-1.64306641 1.21777344C463.86936487 529.71886788 439.37520811 550.43718783 423 575l-5-1c-.0513455-47.10707872-.09910859-94.21415962-.12702942-141.32125854l-.00125506-2.11209619c-.00897833-15.14682535-.01728894-30.293651-.02491151-45.44047709-.00374207-7.42779831-.00763172-14.85559654-.01159893-22.28339474l-.00118872-2.2398866c-.01278831-23.96646834-.03532543-47.93291548-.06290802-71.89937098-.02828885-24.62479712-.0467626-49.24958251-.05285331-73.87439561-.00086449-3.47658783-.0018414-6.95317563-.00288676-10.42976341l-.00061294-2.07349985c-.00354773-11.02293364-.01746886-22.04583106-.03525143-33.06874992-.01764863-11.07671913-.02416793-22.15341066-.02000803-33.23014546.00192707-6.00367505-.00108792-12.00724358-.01711229-18.01089983-.01455326-5.49242597-.01536572-10.98467335-.00508026-16.47710739.00127201-1.9906759-.00257214-3.98136275-.01195287-5.97201696-.01198531-2.69957099-.00558326-5.39849163.00550606-8.09805201l-.02388194-2.35875428C417.65156348 80.32824419 418.48613343 77.07029474 421 73c7.14730105-6.841612 17.13213809-10.82397312 26-15l2.53466797-1.20068359C520.74045503 23.23743668 600.70174096 6.98003679 709.875-.3125M633.1875 72.125l-2.6444397.33648682C587.59220527 77.95953214 544.97126145 87.8501369 504 101.9375l-2.40649414.81835938C498.04238228 104.02655924 495.43576999 105.09710225 493 108c-.58333333 2.5-.58333333 2.5 0 5 1.66543425 1.83689834 1.66543425 1.83689834 4 3 2.48360279-.15796725 2.48360279-.15796725 5.0546875-1.0859375l2.95214844-.91699219L508 113l2.70410156-.86425781c1.8262646-.58789342 3.64999943-1.18369003 5.47143555-1.78637696 44.18949827-14.59815309 89.68215935-24.06794229 136.02124023-28.36206054C661.35685374 81.44248239 661.35685374 81.44248239 669 77c-.09111938-2.53951544-.09111938-2.53951544-1-5-8.59326243-5.72884162-24.88558343-1.15921967-34.8125.125M635 142.6875l-2.36065674.2696228c-41.17173379 4.72838737-81.19219539 14.17283441-120.67428589 26.69262696-1.38271492.4384543-2.76623178.87438835-4.15057373 1.30767822-1.9231177.60440675-3.84158053 1.22356453-5.75979614 1.84335327l-3.32861328 1.06762695C496.09289041 174.96144125 494.6958185 175.73709456 493 178c-.41679297 2.54230847-.41679297 2.54230847 0 5 1.75259819 2.18979293 1.75259819 2.18979293 3.88623047 2.13256836 7.09021821-.69285759 13.51765343-2.65564981 20.25653076-4.91055298 41.73474639-13.88566684 85.42659793-22.89982045 129.20880127-27.06185913l3.92041016-.37841797c2.42775702-.22417403 4.85718633-.43112049 7.28808593-.61816406l3.25244141-.29248047 2.83203125-.22094727c2.50111707-.47353473 2.50111707-.47353473 4.19140625-2.57177734 1.37269792-1.99308188 1.37269792-1.99308188.9765625-4.20336914-.75910836-2.06671429-.75910836-2.06671429-2.8125-3.875-10.26848781-.98293252-20.79964211.49950596-31 1.6875m-102.4765625 93.51269531c-2.60164663.82459311-5.21423377 1.5962355-7.8359375 2.35449219C514.26210393 241.57618999 504.09945568 245.02228142 494 249c-.67673447 3.40320934-.67673447 3.40320934-1 7 1.88683674 2.3027785 1.88683674 2.3027785 4.99609375 2.3359375 4.99618697-.15649161 9.41696064-2.01512136 14.06640625-3.7109375 45.46086866-15.78771065 94.18441106-25.33480188 142.17578125-28.54980469l2.09745789-.15481567c1.87022407-.13766258 3.7414712-.26122174 5.61274719-.38375855C665.14998343 224.9736248 666.63180709 224.17136084 669 222c-.26656572-2.93443402-.26656572-2.93443402-1-6-25.2422535-16.828169-108.78141765 11.60641214-135.4765625 20.20019531M633.1875 290.625l-2.4810791.26574707c-41.24715376 4.4689886-81.25101556 14.11633766-120.79077149 26.51037598-1.84511003.57682469-3.69331667 1.14371545-5.54162597 1.71020507l-3.25683594 1.02929688-2.80126953.87597656C495.89815026 322.04324802 494.61312583 322.9426612 493 325c-.58333333 2.5-.58333333 2.5 0 5 1.59616005 2.00965774 1.59616005 2.00965774 4 3 3.83555039-.52312358 7.41460429-1.72226953 11.08203125-2.93359375 47.1363738-15.30999371 96.35651611-26.98096286 145.99902344-29.29589844l3.32519531-.18066406 2.91601562-.12915039C663.46193964 299.92052516 665.4213713 298.84606373 668 297c1.1576585-1.87957244 1.1576585-1.87957244 1-4-1.01414811-2.22697476-1.01414811-2.22697476-3-4-3.04893249-.55171745-3.04893249-.55171745-6.57421875-.3515625l-1.99919128.04721069c-8.10954544.25279184-16.17728086 1.05155344-24.23908997 1.92935181m-103.625 95.3125-2.26174927.62030029c-8.34465284 2.29809045-16.5966712 4.7913931-24.77340698 7.63360596l-2.20079041.75682068C496.30760011 396.37500259 496.30760011 396.37500259 493 399c.32326553 3.59679066.32326553 3.59679066 1 7 4.80591033 1.1348167 7.80597201.7630762 12.4609375-.80859375l1.86408997-.61157227c1.32721488-.43546796 2.652703-.87622763 3.97657775-1.32174682 12.17022489-4.08289451 24.41890335-7.64211645 36.88589478-10.69558716l1.980896-.48703003c5.49946036-1.347815 10.99657848-2.68834705 16.53717041-3.85720825l3.53271484-.75341797 3.14575195-.64086914C577.11253561 385.96455365 578.33906813 385.30934587 580 383c-.24453124-3.34192692-.60543557-4.60543557-3-7-15.28037168-1.11656302-32.78546827 5.88582996-47.4375 9.9375" />
  <path fill="currentColor"
    d="M34 35c1.63907758 3.27815517 1.13674019 6.90830403 1.12749195 10.51098633l.00498131 2.71466106c.00435012 3.03547657.00152903 6.07090594-.00117138 9.10638386.00170069 2.18486856.00384971 4.36973681.00641125 6.55460453.00461092 4.76784911.00601517 9.53568521.00503475 14.30353642-.00158795 7.75631155.00359899 15.51261013.00962639 23.26891899.00772073 10.52953695.01265986 21.05907203.0156556 31.58861132.00513821 17.77677577.02059795 35.55353141.03957648 53.33029726.00402174 3.78155368.00794258 7.56310746.01186636 11.34466125l.00237168 2.28450953q.00237838 2.29160079.00475449 4.58320159a1191582 1191582 0 0 0 .00478273 4.60027165c.01883958 18.09286337.0359208 36.1857281.05157737 54.27859449l.00208764 2.39966093c.02225573 25.67119615.03409841 51.34238649.04157892 77.01359074.00776483 26.38582567.02882462 52.7716116.06554261 79.15741347.00517371 3.72685167.01018106 7.45370353.01507939 11.18055556l.00293018 2.22268387c.01514295 11.80494715.01603475 23.60985452.01141269 35.41480872-.00438442 11.86744362.00584238 23.73480007.03008707 35.60222019.01268204 6.42950181.01882029 12.85883797.00758346 19.28834623-.01015506 5.8861419-.00194645 11.77196197.02086296 17.6580658.00500146 2.12930501.00325281 4.25863883-.00593267 6.38792991-.60450532 15.86809157-.60450532 15.86809157 5.90222575 29.82131481 7.14100604 6.5958154 17.30869485 6.53411054 26.48971766 6.52893162l2.27272207.01068741c2.49172546.01060044 4.98341256.01435306 7.47515696.01813644 1.79646971.00631296 3.59293787.01307958 5.3894043.02026368 3.86255251.01463287 7.72509915.02637363 11.58766746.0359478 6.13733487.0155461 12.27461957.03950281 18.41192055.06489753 17.45119531.0709291 34.90242055.1305735 52.35368347.18211365 9.64368153.02855611 19.28731425.06407905 28.93094427.10665375 5.08636109.02211588 10.17267804.04074339 15.25907916.05044884C236.87700769 586.688028 264.12237019 586.99201656 291.25 590.75l3.72436523.51049805c30.86643902 4.46690876 59.87560432 13.81838819 86.52026368 30.05883789C388.52490372 625.54508473 395.65755762 628.48052604 404 627c9.68926875-3.73336515 16.41994232-8.95251517 23.08203125-16.76171875 2.77574296-3.23930899 5.64872231-6.38866577 8.51171875-9.55078125 1.31795952-1.47200674 2.63085985-2.94883782 3.91870117-4.44726562 4.7133151-5.47396735 9.69532528-10.6313505 14.80004883-15.74023438l2.45507812-2.4921875 2.34570313-2.3515625 2.1184082-2.13085938C463 572 463 572 465 572v-2c1.57286684-1.41438406 3.21139996-2.75604401 4.875-4.0625 3.64985286-2.91157668 7.16605372-5.86048356 10.5625-9.0625 54.95346088-49.69928986 139.20063179-86.47406861 213.80078125-87.11328125l2.88139343-.02967834C749.89125792 469.30062849 805.02563786 477.73950253 846 514l1.48339844 1.30078125C883.72403155 547.19805377 901.91918199 592.23717325 905 640c.1946101 4.3968345.27423284 8.78677658.3125 13.1875l.08789062 3.40429688C905.45366155 663.57028749 904.78499083 668.08465913 901 674c-5.5626151 5.16528545-9.37148622 5.2884858-16.79296875 5.21484375-5.31155556-.35582894-8.00371744-1.88144196-11.51953125-5.77734375-2.75490185-3.97930268-2.91427654-7.02872749-3.125-11.75C867.69935649 626.9710503 861.90540898 594.14065648 840 566l-2.0859375-2.7421875c-25.56250077-32.57603888-66.59749893-48.1496091-106.69140625-53.00390625C692.6230412 506.15547248 655.07589034 511.09860926 618 522l-2.47802734.72558594C573.13687446 535.3869051 532.66425488 558.46075109 499 587l-2.9921875 2.46875c-13.73401264 11.37639706-27.17451704 23.56309209-38.83984375 37.0703125C451.92246244 632.49342101 446.49423822 638.27529066 441 644l-2.56640625 2.6875C428.2730188 656.59019233 413.29309308 663.80258159 399 664c-14.90028069-1.02108522-26.50412145-7.13168931-39.13427734-14.48046875C342.40505188 639.38289385 324.8164609 633.1402589 305 629.25l-3.05004883-.60205078c-15.56119277-2.88367002-31.39730812-3.98565759-47.18530273-4.75366211l-2.55033922-.12697995c-21.08128892-1.02617686-42.15899307-1.06677424-63.26070643-1.07322943-5.46081597-.00457609-10.92158631-.02263153-16.38237476-.03979611-17.29735617-.05199973-34.59473712-.0832475-51.89215493-.10592562-11.45679237-.01514245-22.91349733-.03880946-34.37023354-.07839823-6.459574-.0216292-12.9189755-.029849-19.37858319-.02760726-4.00818797-.00167275-8.01626339-.01575253-12.02441073-.03321278-1.84620084-.00556884-3.69242529-.00611325-5.53862762-.0010624-15.64922729.03831294-28.15529233-1.0544796-40.17971802-12.06823158-8.27326462-8.74897734-9.34215037-20.00857501-9.32172108-31.51292133l-.00712797-2.74749241c-.0066641-3.04222058-.00623256-6.08439819-.00582197-9.12662544-.00330021-2.20155852-.00702611-4.40311643-.01114148-6.60467357-.01000973-6.05331974-.01373512-12.10662956-.01638931-18.15995639-.00350484-5.85681793-.01165226-11.7136283-.01954394-17.57044168-.02082195-15.68689371-.03130969-31.37378928-.0401296-47.06069358-.00420875-7.4215562-.00943035-14.84311159-.01468453-22.26466711-.01788607-25.4080091-.03288283-50.81601844-.04032019-76.22403289a3374429 3374429 0 0 0-.00142767-4.78316043l-.00071629-2.39594423c-.00120118-4.00580284-.00241664-8.01160568-.00364199-12.01740852l-.00072772-2.40896425c-.00789563-25.78330911-.031335-51.56657226-.06382822-77.3498613-.03429705-27.26440497-.054009-54.52878305-.05730235-81.79320996-.00041754-2.99279876-.0008971-5.9855975-.00142318-8.97839624l-.00037331-2.23303825c-.00233184-11.85768609-.01799052-23.71531875-.03846854-35.5729858-.02025451-11.91722255-.02573702-23.83438092-.01622937-35.75161749.00455325-6.45587768.00259857-12.91158186-.01676144-19.36743589-.01757026-5.90997724-.01668366-11.81965361-.00110271-17.72963377.00238535-2.13791242-.00199525-4.27584535-.01382865-6.41372635C-.6276415 48.69362455-.6276415 48.69362455 5.84843653 42.1252076 14.26507521 34.97333628 23.3632646 34.55611769 34 35m741.875-.3125c9.13514973.0901495 17.02842739 2.35916805 23.7578125 8.734375 4.68430566 5.40702711 5.49070368 11.10818362 5.50140858 17.98536396l.00712797 1.95181879c.00667848 2.16705889.00623213 4.33405766.00582197 6.50112597.00329932 1.56588843.00702504 3.13177602.01114148 4.69766253.01001999 4.31004764.01373678 8.62008136.01638931 12.930139.00390294 4.64564811.01348116 9.29128518.02221286 13.93692625.01976263 11.22130033.02982946 22.44260156.03872779 33.66391495.00438243 5.28242575.00974928 10.5648505.01498887 15.84727546.01701056 17.55575827.03150594 35.11151591.03874874 52.66728115.00190993 4.55578964.00383026 9.11157927.00578595 13.66736889l.00146588 3.4313195c.00830484 18.35351652.03365021 36.70696797.06611479 55.06045605.03304757 18.83633846.05107998 37.67264381.05427762 56.50901141.00216702 10.57876141.01094388 21.15742786.03646118 31.73616106.02167538 9.00681958.02977294 18.01352113.02003322 27.02036384-.00455362 4.59631708-.00259689 9.19239046.01676144 13.78867432.01756849 4.20759108.01668561 8.41475954.00110271 12.62235471-.00238568 1.52220729.00199709 3.04444336.01382865 4.56660653C805.60837239 436.15383659 805.60837239 436.15383659 801 442c-3.43386551 2.82067524-7.75900352 2.30957828-12 2-3.18407298-.60560745-6.2663831-1.46341218-9.375-2.375l-2.44140625-.671875C771.26886344 439.26886344 771.26886344 439.26886344 769 437c-.24954766-2.81847006-.24954766-2.81847006-.24888897-6.50586796l-.00790086-2.05771497c-.00634599-2.29799466.00169129-4.5957208.00955167-6.89370772-.00158677-1.6550594-.00404906-3.31011816-.00731641-4.96517509-.0064406-4.56561305-.00032452-9.13113804.00776428-13.69674534.00655641-4.91686996.00163304-9.83372973-.0018822-14.75060093-.00505137-9.63883003.00061128-19.27762586.00985031-28.91645164.01036308-11.2128312.01031437-22.42565492.00982742-33.63849001-.00050108-19.99896631.00867328-39.99791665.02318421-59.9968772.01409021-19.42903942.02117073-38.85806478.02050782-58.28710937l-.00012108-3.6263466-.00012229-3.61992889c-.000689-22.08653529.00519513-44.17306457.01415322-66.25959792.0030225-7.82574078.00408028-15.65148046.0045323-23.47722176.00068058-9.52926344.00512345-19.05851676.01433281-28.5877759.00463215-4.86685671.0076583-9.73370045.00640579-14.60055952-.0010892-4.44778394.00238729-8.8955391.00964853-13.34331703.00182416-1.61636621.00193321-3.23273538.00023271-4.84910173-.0020433-2.18249612.00195985-4.36489593.00760629-6.5473836l.00213462-3.68690592c.22810282-4.85620001 2.66448029-3.90867576 7.00149983-4.0056209" />
  <path fill="currentColor"
    d="M767.96972656 558.63330078C783.05170657 563.77226028 795.74580684 571.7829494 807 583l2.60546875 2.59375L812 588l1.66796875 1.640625C827.64501933 604.44408217 834.82375146 624.2551117 838 644l.3984375 2.22265625c1.3382442 8.51774351 2.42525437 18.58771041-2.1875 26.2265625C833.58889127 675.80712956 831.01057506 677.66314165 827 679c-7.41108734.6609303-13.03831366.69324244-19-4-2.98866339-4.02569358-3.5264632-7.43245962-4-12.375-2.40519219-22.03531933-8.62699473-42.76133407-26.2734375-57.52734375-10.57174734-7.81761899-22.79287409-12.9100671-35.86328125-14.47265625C734.34796168 589.71976703 729.92670591 587.88109397 725 582c-2.85902655-4.40766593-2.62770702-9.90859863-2-15 1.69573932-5.3622027 4.2541919-8.87775783 9-12 9.93363658-4.96681829 26.09118077.45717934 35.96972656 3.63330078m-12.82128906 68.83935547c6.54332956 5.14466246 10.52018704 11.8277342 11.7890625 20.08984375.47369522 8.1532995-1.82120046 15.09380536-6.9375 21.4375-6.45830018 6.7703609-13.04607306 10.32619763-22.453125 10.99609375-8.71118622.01336072-15.55787859-3.10593973-21.75390625-9.1484375C709.24333552 663.75517054 706.89595315 657.70236914 707 648c1.73062835-10.06648826 6.84303454-17.0402983 15-23 10.30806484-6.33655934 23.66416175-4.02838367 33.1484375 2.47265625" />
  <path fill="currentColor"
    d="M655.5625 137.9375 659 138v1l6 1v1c-1.77049689.05410687-3.54146849.09284119-5.3125.125l-2.98828125.0703125C654 141 654 141 651 139c1-1 1-1 4.5625-1.0625" />
  <path fill="currentColor"
    d="M765 643h1c.75612577 5.23471686 1.2063366 9.77254141 0 15h-1c-1.33257403-10.55808656-1.33257403-10.55808656 0-15" />
  <path fill="currentColor"
    d="m730 556 2 1c-1.375 2-1.375 2-3 4h-2l-2 6-1-3c1.77442409-2.99816485 3.53540571-5.53540571 6-8" />
</svg>